<?xml version="1.0" encoding="UTF-8" standalone="no"?>
<svg width="16px" height="16px" viewBox="0 0 16 16" version="1.1" xmlns="http://www.w3.org/2000/svg" xmlns:xlink="http://www.w3.org/1999/xlink">
    <!-- Generator: Sketch 39.1 (31720) - http://www.bohemiancoding.com/sketch -->
    <title>Shape</title>
    <desc>Created with Sketch.</desc>
    <defs></defs>
    <g id="Page-1" stroke="none" stroke-width="1" fill="none" fill-rule="evenodd" opacity="0.75">
        <g id="Artboard-Copy-2" transform="translate(-13.000000, -66.000000)" fill="#FFFFFF">
            <path d="M27.1027233,67.8973507 C25.8792036,66.673831 24.2524063,66 22.5220337,66 C20.7916611,66 19.1649378,66.673831 17.9414181,67.8973507 C16.7178245,69.1209443 16.0439195,70.7477417 16.0439195,72.4781142 C16.0439195,73.7962573 16.4359518,75.0536609 17.1631241,76.1190803 L13.3551059,79.9270245 C12.881619,80.4006593 12.881619,81.1712592 13.3551799,81.6449681 C13.5845991,81.8744612 13.8897022,82.000823 14.2141147,82.000823 C14.5385272,82.000823 14.8437042,81.8744612 15.0730495,81.6449681 L18.8809936,77.8370239 C19.9464131,78.5641961 21.2038167,78.9562285 22.5218857,78.9562285 C24.2523323,78.9562285 25.8790556,78.2823974 27.1025753,77.0588038 C28.326169,75.8352841 29,74.2085608 29,72.4781142 C29.0001479,70.7477417 28.3263169,69.1209443 27.1027233,67.8973507 L27.1027233,67.8973507 Z M26.5795943,76.5356748 C25.4958272,77.6194418 24.0547995,78.2164052 22.5219597,78.2164052 C20.9891939,78.2164052 19.5482402,77.6195158 18.4643992,76.5356748 C17.3805581,75.4518337 16.7836687,74.01088 16.7836687,72.4780402 C16.7836687,70.9452745 17.3805581,69.5043207 18.4643992,68.4204057 C19.5482402,67.3366386 20.9892679,66.7398232 22.5220337,66.7398232 C24.0548735,66.7398232 25.4958272,67.3366386 26.5796682,68.4204797 C27.6634353,69.5043207 28.2603987,70.9453484 28.2603987,72.4781142 C28.2603247,74.01088 27.6634353,75.4519077 26.5795943,76.5356748 L26.5795943,76.5356748 Z M22.8920193,68.0702474 C22.8920193,68.2745865 22.7264469,68.440159 22.5221077,68.440159 C20.2955357,68.440159 18.4841525,70.2515422 18.4841525,72.4780402 C18.4841525,72.6823794 18.31858,72.8479519 18.1142408,72.8479519 C17.9099017,72.8479519 17.7443292,72.6823794 17.7443292,72.4780402 C17.7443292,69.8436037 19.8876711,67.7003357 22.5221077,67.7003357 C22.7263729,67.7003357 22.8920193,67.8659822 22.8920193,68.0702474 L22.8920193,68.0702474 Z" id="Shape"></path>
        </g>
    </g>
</svg>