<?xml version="1.0" encoding="UTF-8" standalone="no"?>
<svg width="16px" height="14px" viewBox="0 0 16 14" version="1.1" xmlns="http://www.w3.org/2000/svg" xmlns:xlink="http://www.w3.org/1999/xlink">
    <!-- Generator: Sketch 39.1 (31720) - http://www.bohemiancoding.com/sketch -->
    <title>board</title>
    <desc>Created with Sketch.</desc>
    <defs></defs>
    <g id="Page-1" stroke="none" stroke-width="1" fill="none" fill-rule="evenodd">
        <path d="M0.0751187303,5.15790582 C-0.382057077,6.8053715 1.32745389,8.70428387 3.03696486,8.70428387 C3.16105543,8.70428387 3.28351324,8.69448724 3.40433827,8.67979231 C3.9888702,8.62101256 4.36604024,8.78918795 4.60932308,9.00471369 C4.95057217,9.30840904 4.9766965,10.0774441 5.0322107,10.5297216 C5.11874755,11.2383441 5.40774797,11.7330736 5.69021731,12.0563622 C5.99064713,12.4008768 6.65028651,12.7617192 7.09276738,12.8760131 C7.3148242,12.9331601 7.55157596,12.9805104 7.77036724,13.0180642 C8.22101196,13.0948044 8.96065711,13.1421547 9.41620014,13.1241943 C10.8432418,13.0703128 12.572346,12.5788488 14.1740941,10.9787335 C17.7253704,7.42745715 15.3300958,3.93822607 13.4246523,2.357704 C7.93037877,-2.1960936 1.37970255,0.453893311 0.0751187303,5.15790582 L0.0751187303,5.15790582 Z M2.76429214,7.03559217 C2.14383926,7.03559217 1.64094587,6.53269878 1.64094587,5.9122459 C1.64094587,5.29179302 2.14383926,4.78889963 2.76429214,4.78889963 C3.38474502,4.78889963 3.88763841,5.29179302 3.88763841,5.9122459 C3.88600564,6.53269878 3.38474502,7.03559217 2.76429214,7.03559217 L2.76429214,7.03559217 Z M5.67715515,4.45418163 C5.05670226,4.45418163 4.55380887,3.95128824 4.55380887,3.33083536 C4.55380887,2.71038248 5.05670226,2.20748909 5.67715515,2.20748909 C6.29760803,2.20748909 6.80050142,2.71038248 6.80050142,3.33083536 C6.80050142,3.95292101 6.29760803,4.45418163 5.67715515,4.45418163 L5.67715515,4.45418163 Z M7.9842602,11.4963218 C7.24624783,11.4963218 6.64865374,10.8987277 6.64865374,10.1607154 C6.64865374,9.422703 7.24624783,8.8251089 7.9842602,8.8251089 C8.72227258,8.8251089 9.31986667,9.422703 9.31986667,10.1607154 C9.31986667,10.8987277 8.72227258,11.4963218 7.9842602,11.4963218 L7.9842602,11.4963218 Z M8.98678144,4.45418163 C8.36632856,4.45418163 7.86343517,3.95128824 7.86343517,3.33083536 C7.86343517,2.71038248 8.36632856,2.20748909 8.98678144,2.20748909 C9.60723432,2.20748909 10.1101277,2.71038248 10.1101277,3.33083536 C10.1084949,3.95292101 9.60560155,4.45418163 8.98678144,4.45418163 L8.98678144,4.45418163 Z M12.2931422,6.06409358 C11.6726893,6.06409358 11.1697959,5.56120019 11.1697959,4.94074731 C11.1697959,4.32029443 11.6726893,3.81740104 12.2931422,3.81740104 C12.9135951,3.81740104 13.4164885,4.32029443 13.4164885,4.94074731 C13.4164885,5.56120019 12.9135951,6.06409358 12.2931422,6.06409358 L12.2931422,6.06409358 Z" id="board" fill="#F0F0F0"></path>
    </g>
</svg>