<?xml version="1.0" encoding="UTF-8" standalone="no"?>
<svg width="13px" height="13px" viewBox="0 0 13 13" version="1.1" xmlns="http://www.w3.org/2000/svg" xmlns:xlink="http://www.w3.org/1999/xlink">
    <!-- Generator: Sketch 39.1 (31720) - http://www.bohemiancoding.com/sketch -->
    <title>search</title>
    <desc>Created with Sketch.</desc>
    <defs></defs>
    <g id="Page-1" stroke="none" stroke-width="1" fill="none" fill-rule="evenodd">
        <path d="M11.4578733,1.54151815 C10.4638147,0.547459528 9.14210989,0 7.73625447,0 C6.33039904,0 5.00875435,0.547459528 4.01469572,1.54151815 C3.02057706,2.53563682 2.47305741,3.85734172 2.47305741,5.26319706 C2.47305741,6.33413324 2.79156727,7.35572112 3.38236437,8.22132986 L0.288508724,11.3151254 C-0.0961795945,11.6999339 -0.0961795945,12.3260141 0.288568846,12.7108828 C0.474962359,12.8973363 0.722845877,13 0.986417476,13 C1.24998907,13 1.49793263,12.8973363 1.68426611,12.7108828 L4.77806155,9.61708724 C5.64367037,10.2078843 6.66525825,10.5263942 7.73613422,10.5263942 C9.14204977,10.5263942 10.4636945,9.9789346 11.4577531,8.98481593 C12.4518718,7.99075731 12.9993314,6.66911261 12.9993314,5.26319706 C12.9994515,3.85734172 12.451992,2.53563682 11.4578733,1.54151815 L11.4578733,1.54151815 L11.4578733,1.54151815 Z M11.0328529,8.55979548 C10.1523374,9.44031088 8.98156263,9.92531869 7.73619435,9.92531869 C6.49088619,9.92531869 5.32017153,9.440371 4.43959601,8.55979548 C3.55902041,7.67921988 3.07407272,6.50850522 3.07407272,5.26313694 C3.07407272,4.01782886 3.55902041,2.84711412 4.43959601,1.96647848 C5.32017153,1.085963 6.49094631,0.601075432 7.73625447,0.601075432 C8.98162275,0.601075432 10.1523374,1.085963 11.0329129,1.9665386 C11.9134284,2.84711412 12.3984362,4.0178889 12.3984362,5.26319706 C12.3983761,6.50850522 11.9134284,7.67928 11.0328529,8.55979548 L11.0328529,8.55979548 L11.0328529,8.55979548 Z M8.03685231,1.6819895 C8.03685231,1.84800647 7.90233165,1.98252721 7.73631459,1.98252721 C5.92731789,1.98252721 4.45564474,3.45420036 4.45564474,5.26313694 C4.45564474,5.429154 4.321124,5.56367474 4.15510694,5.56367474 C3.98908996,5.56367474 3.85456923,5.429154 3.85456923,5.26313694 C3.85456923,3.12276738 5.59594495,1.3814517 7.73631459,1.3814517 C7.90227153,1.3814517 8.03685231,1.51603256 8.03685231,1.6819895 L8.03685231,1.6819895 L8.03685231,1.6819895 Z" id="search" fill="#F0F0F0"></path>
    </g>
</svg>