<?xml version="1.0" encoding="UTF-8" standalone="no"?>
<svg width="16px" height="11px" viewBox="0 0 16 11" version="1.1" xmlns="http://www.w3.org/2000/svg" xmlns:xlink="http://www.w3.org/1999/xlink">
    <!-- Generator: Sketch 39.1 (31720) - http://www.bohemiancoding.com/sketch -->
    <title>category</title>
    <desc>Created with Sketch.</desc>
    <defs></defs>
    <g id="Page-1" stroke="none" stroke-width="1" fill="none" fill-rule="evenodd">
        <path d="M15.9432786,4.93943888 L13.7421044,10.9999335 L1.66014621,10.9999335 L3.93356996,4.9365014 C4.12691254,4.42184826 4.73531511,3.99997581 5.28512429,3.99997581 L15.2850638,3.99997581 C15.834873,3.99997581 16.1317462,4.422817 15.9432786,4.93943888 L15.9432786,4.93943888 Z M0.969712886,9.99409581 L2.99801312,4.58590977 C3.33591733,3.68160274 4.31928638,2.99998186 5.28512429,2.99998186 L13.9999153,2.99998186 C13.9999153,2.4472352 13.5526368,1.99998791 12.9999214,1.99998791 L5.99996372,1.99998791 L4.99996976,0 L0.999993953,0 C0.447247295,0 0,0.447278545 0,0.999993953 L0,8.99994558 C-7.38960627e-16,9.5419423 0.43162239,9.97650217 0.969712886,9.99409581 L0.969712886,9.99409581 Z" id="category" fill="#F0F0F0"></path>
    </g>
</svg>